<svg xmlns="http://www.w3.org/2000/svg" version="1.1" xmlns:xlink="http://www.w3.org/1999/xlink" xmlns:svgjs="http://svgjs.dev/svgjs" width="1366" height="768" preserveAspectRatio="none" viewBox="0 0 1366 768"><g mask="url(&quot;#SvgjsMask1046&quot;)" fill="none"><rect width="1366" height="768" x="0" y="0" fill="rgba(14, 14, 15, 1)"></rect><path d="M466.8732598987767 309.925745709583L414.52156078315545 180.35074347450342 284.9465585480759 232.70244259012466 337.29825766369714 362.27744482520427z" fill="rgba(189, 14, 50, 0.26)" class="triangle-float3"></path><path d="M648.6327593680195 692.2553802499848L720.4594154641651 585.7679834230516 613.9720186372319 513.941327326906 542.1453625410863 620.4287241538392z" fill="rgba(189, 14, 50, 0.26)" class="triangle-float3"></path><path d="M986.764,427.122C1053.647,428.263,1121.547,399.194,1152.418,339.851C1181.547,283.857,1157.713,218.248,1122.763,165.691C1092.043,119.495,1042.224,92.17,986.764,90.743C928.426,89.242,869.566,109.233,838.076,158.365C804.117,211.349,800.155,279.292,830.621,334.359C862.032,391.135,921.887,426.015,986.764,427.122" fill="rgba(189, 14, 50, 0.26)" class="triangle-float3"></path><path d="M1162.2570286130608 636.4321074024717L1189.6483185079821 715.9821894688743 1295.2777966601252 635.1202135932908z" fill="rgba(189, 14, 50, 0.26)" class="triangle-float3"></path><path d="M1063.433310236299 197.51523840355694L1172.1093929888862 68.0001263540955 933.9181981868375 88.83915565096977z" fill="rgba(189, 14, 50, 0.26)" class="triangle-float1"></path><path d="M551.7348618500857 377.8971233789753L695.2311862516485 257.48941049832865 574.8234733710018 113.99308609676586 431.32714896943907 234.40079897741256z" fill="rgba(189, 14, 50, 0.26)" class="triangle-float1"></path><path d="M1002.153428998827-71.20349674515599L975.3677385918744 97.9146966333579 1144.4859319703883 124.70038704031053 1171.271622377341-44.41780633820336z" fill="rgba(189, 14, 50, 0.26)" class="triangle-float3"></path><path d="M239.25664857953217 398.3284282609705L173.93536435361332 568.4961914896674 344.1031275823102 633.8174757155862 409.424411808229 463.64971248688937z" fill="rgba(189, 14, 50, 0.26)" class="triangle-float2"></path><path d="M363.0323462807792 646.7969299771846L255.64658002439012 832.3858439386353 443.0528207075506 835.657032037713z" fill="rgba(189, 14, 50, 0.26)" class="triangle-float1"></path></g><defs><mask id="SvgjsMask1046"><rect width="1366" height="768" fill="#ffffff"></rect></mask><style>
                @keyframes float1 {
                    0%{transform: translate(0, 0)}
                    50%{transform: translate(-10px, 0)}
                    100%{transform: translate(0, 0)}
                }

                .triangle-float1 {
                    animation: float1 5s infinite;
                }

                @keyframes float2 {
                    0%{transform: translate(0, 0)}
                    50%{transform: translate(-5px, -5px)}
                    100%{transform: translate(0, 0)}
                }

                .triangle-float2 {
                    animation: float2 4s infinite;
                }

                @keyframes float3 {
                    0%{transform: translate(0, 0)}
                    50%{transform: translate(0, -10px)}
                    100%{transform: translate(0, 0)}
                }

                .triangle-float3 {
                    animation: float3 6s infinite;
                }
            </style></defs></svg>